<svg width="149" height="56" viewBox="0 0 149 56" fill="none" xmlns="http://www.w3.org/2000/svg">
<path d="M148.997 2.07133C149.037 1.52045 148.622 1.04194 148.071 1.00255L139.094 0.360637C138.543 0.321246 138.065 0.735888 138.025 1.28677C137.986 1.83764 138.401 2.31615 138.952 2.35554L146.931 2.92613L146.361 10.9058C146.321 11.4566 146.736 11.9351 147.287 11.9745C147.838 12.0139 148.316 11.5993 148.356 11.0484L148.997 2.07133ZM0.938049 54.9981C33.0176 56.9893 57.1885 55.023 79.7484 46.9784C102.301 38.9365 123.156 24.851 148.655 2.75574L147.345 1.24426C121.924 23.2726 101.289 37.1741 79.0767 45.0946C56.8716 53.0126 33.0024 54.9845 1.06195 53.0019L0.938049 54.9981Z" fill="black"/>
</svg>
