<svg width="200" height="164" viewBox="0 0 200 164" fill="none" xmlns="http://www.w3.org/2000/svg">
<path d="M45.0699 141.358C45.0575 141.91 45.4951 142.368 46.0472 142.38L55.045 142.582C55.5971 142.594 56.0547 142.157 56.0671 141.605C56.0795 141.053 55.642 140.595 55.0898 140.582L47.0918 140.403L47.2713 132.405C47.2837 131.853 46.8462 131.395 46.294 131.383C45.7419 131.37 45.2842 131.808 45.2718 132.36L45.0699 141.358ZM190.362 81.2503C158.224 80.8311 134.178 83.9777 112.039 93.1164C89.9065 102.252 69.7655 117.341 45.3786 140.658L46.7607 142.103C71.0738 118.857 91.0038 103.963 112.802 94.9651C134.593 85.9701 158.337 82.8327 190.336 83.2502L190.362 81.2503Z" fill="black"/>
</svg>
