<svg width="200" height="164" viewBox="0 0 200 164" fill="none" xmlns="http://www.w3.org/2000/svg">
<path d="M48.4597 23.2885C47.9084 23.2554 47.4347 23.6755 47.4016 24.2268L46.8626 33.2107C46.8295 33.762 47.2496 34.2357 47.8009 34.2688C48.3522 34.3019 48.8259 33.8818 48.859 33.3305L49.3382 25.3448L57.3238 25.824C57.8751 25.8571 58.3488 25.437 58.3819 24.8857C58.415 24.3344 57.9949 23.8607 57.4436 23.8276L48.4597 23.2885ZM193.982 80.9047C159.203 82.2453 133.819 80.08 111.74 71.5363C89.6764 62.9983 70.8088 48.0495 49.148 23.6232L47.6517 24.9502C69.4238 49.5019 88.5426 64.7041 111.019 73.4015C133.48 82.093 159.189 84.2473 194.059 82.9032L193.982 80.9047Z" fill="black"/>
</svg>
