<svg width="150" height="57" viewBox="0 0 150 57" fill="none" xmlns="http://www.w3.org/2000/svg">
<path d="M147.965 56.9994C148.517 57.0188 148.98 56.5871 148.999 56.0352L149.316 47.0408C149.336 46.4888 148.904 46.0256 148.352 46.0062C147.8 45.9867 147.337 46.4184 147.317 46.9704L147.036 54.9654L139.041 54.6838C138.489 54.6643 138.026 55.096 138.006 55.648C137.987 56.1999 138.418 56.6631 138.97 56.6825L147.965 56.9994ZM1.06322 2.998C35.7979 0.798041 61.2274 2.33525 83.5109 10.3306C105.779 18.3205 125.01 32.7985 147.268 56.6818L148.732 55.3182C126.359 31.3122 106.87 16.5873 84.1863 8.44813C61.5173 0.314423 35.7621 -1.2037 0.936805 1.002L1.06322 2.998Z" fill="black"/>
</svg>
