<?xml version="1.0" standalone="no"?>
<!DOCTYPE svg PUBLIC "-//W3C//DTD SVG 20010904//EN"
 "http://www.w3.org/TR/2001/REC-SVG-20010904/DTD/svg10.dtd">
<svg version="1.0" xmlns="http://www.w3.org/2000/svg"
 width="300.000000pt" height="300.000000pt" viewBox="0 0 300.000000 300.000000"
 preserveAspectRatio="xMidYMid meet">
<metadata>
Created by potrace 1.14, written by Peter Selinger 2001-2017
</metadata>
<g transform="translate(0.000000,300.000000) scale(0.100000,-0.100000)"
fill="#000000" stroke="none">
<path d="M0 1500 l0 -1500 1500 0 1500 0 0 1500 0 1500 -1500 0 -1500 0 0
-1500z m2403 952 c15 -6 27 -19 27 -27 0 -14 -10 -15 -77 -8 -110 11 -314 6
-408 -10 -44 -8 -73 -16 -65 -20 8 -3 47 -15 85 -27 101 -31 215 -88 215 -107
0 -17 -18 -15 -90 13 -57 21 -198 22 -295 1 -97 -21 -214 -67 -318 -127 -91
-52 -117 -60 -117 -36 0 54 317 196 495 222 l50 7 -70 14 c-96 19 -154 12
-276 -36 -178 -70 -342 -173 -489 -308 -36 -33 -71 -58 -77 -56 -27 10 -10 43
49 99 133 123 309 235 462 294 56 22 86 39 89 52 4 15 15 18 72 18 37 0 94 7
127 16 131 33 231 43 408 40 98 -2 187 -8 203 -14z m-1065 -84 c7 -7 12 -15
12 -19 0 -4 -43 -30 -96 -58 -196 -103 -364 -249 -481 -417 -94 -136 -99 -141
-114 -126 -17 16 12 71 97 185 120 160 286 300 478 403 92 49 88 48 104 32z
m820 -143 c50 -15 113 -58 101 -69 -3 -3 -30 4 -60 16 -45 19 -73 22 -174 22
-107 0 -130 -4 -215 -32 -52 -17 -139 -54 -193 -82 -54 -28 -96 -46 -92 -39
12 18 -34 0 -93 -38 -30 -19 -51 -29 -48 -24 9 14 156 110 229 151 74 40 175
78 252 95 84 19 230 18 293 0z m138 -109 c29 -22 11 -29 -65 -27 -82 3 -180
-27 -311 -95 -96 -49 -273 -162 -362 -231 -57 -43 -88 -50 -88 -20 0 15 162
132 282 206 129 78 262 139 363 166 67 18 156 19 181 1z m34 -59 c-6 -12 -43
-48 -81 -79 -70 -58 -402 -298 -411 -298 -3 0 -8 9 -11 19 -4 16 17 35 107 97
198 139 352 252 377 278 26 27 38 17 19 -17z m5 -142 c-104 -127 -472 -399
-780 -577 -219 -126 -254 -143 -265 -132 -19 19 0 40 67 73 92 45 398 229 513
309 157 108 328 241 409 318 84 80 119 85 56 9z m85 -36 c0 -45 -75 -163 -159
-251 -156 -164 -400 -327 -668 -445 -169 -75 -377 -148 -398 -139 -21 8 -19
43 3 50 9 3 44 12 77 22 149 42 432 169 609 274 219 129 418 313 478 439 32
69 58 91 58 50z m-1250 -60 c120 -28 241 -114 305 -218 40 -68 41 -69 18 -67
-10 0 -17 -4 -16 -10 1 -6 -10 -9 -27 -6 -24 3 -31 0 -39 -21 -10 -26 -29 -37
-66 -37 -14 0 -34 -13 -52 -35 -19 -25 -39 -38 -63 -41 -49 -8 -83 -28 -99
-57 -14 -26 -42 -41 -98 -52 -30 -6 -66 -38 -76 -68 -2 -8 -14 -8 -46 2 -37
11 -46 10 -67 -4 -32 -21 -40 -42 -27 -75 9 -23 6 -30 -14 -48 -28 -25 -36
-26 -66 -11 -16 9 -22 9 -25 0 -2 -7 -14 -2 -29 13 -14 14 -29 24 -32 21 -12
-7 -40 49 -56 111 -59 225 51 463 261 564 34 16 79 34 100 39 54 12 160 13
214 0z m1238 -147 c-47 -172 -276 -432 -533 -604 -299 -200 -586 -299 -825
-284 -214 13 -373 91 -460 226 -31 49 -34 80 -7 80 8 0 18 -10 24 -22 22 -49
104 -126 171 -161 317 -167 818 -31 1264 342 153 128 299 309 343 426 21 53
38 51 23 -3z m-24 -209 c-14 -62 -117 -243 -148 -260 -8 -4 -16 -12 -18 -18
-2 -5 -7 -9 -11 -7 -5 1 -6 -2 -3 -7 4 -5 -6 -19 -21 -30 -63 -46 -78 -59
-146 -118 -174 -154 -438 -298 -597 -327 -19 -4 10 9 66 28 348 118 681 393
840 694 21 39 40 72 41 72 2 0 1 -12 -3 -27z m-991 -780 c-7 -2 -19 -2 -25 0
-7 3 -2 5 12 5 14 0 19 -2 13 -5z m-50 -10 c-7 -2 -21 -2 -30 0 -10 3 -4 5 12
5 17 0 24 -2 18 -5z m-146 -9 c-3 -3 -12 -4 -19 -1 -8 3 -5 6 6 6 11 1 17 -2
13 -5z m40 0 c-3 -3 -12 -4 -19 -1 -8 3 -5 6 6 6 11 1 17 -2 13 -5z"/>
<path d="M1105 1770 c-4 -6 9 -10 32 -10 28 0 34 3 23 10 -20 13 -47 13 -55 0z"/>
<path d="M993 1740 c-39 -16 -25 -28 17 -17 25 7 35 14 27 19 -14 9 -16 9 -44
-2z"/>
<path d="M1200 1695 c-7 -8 -9 -23 -6 -32 5 -11 10 -13 14 -7 4 6 20 14 36 18
30 7 26 19 -10 30 -13 4 -26 1 -34 -9z"/>
<path d="M1300 1700 c0 -5 12 -10 26 -10 14 0 23 4 19 10 -3 6 -15 10 -26 10
-10 0 -19 -4 -19 -10z"/>
<path d="M855 1670 c-22 -24 -18 -25 28 -5 19 8 38 11 42 7 5 -4 5 -1 1 6 -11
19 -51 14 -71 -8z"/>
<path d="M1072 1654 c-27 -19 -31 -60 -4 -49 9 4 32 11 50 15 45 11 51 19 28
36 -25 18 -46 18 -74 -2z"/>
<path d="M755 1620 c-10 -11 -13 -20 -7 -20 6 0 14 5 17 10 3 6 15 10 26 10
11 0 17 5 14 10 -10 16 -30 12 -50 -10z"/>
<path d="M1400 1614 c0 -24 19 -54 34 -54 21 0 26 25 10 49 -18 25 -44 28 -44
5z"/>
<path d="M1312 1598 c-17 -17 -15 -44 4 -62 12 -13 20 -14 37 -4 12 6 24 10
27 9 3 -1 6 7 8 17 6 39 -49 67 -76 40z"/>
<path d="M920 1580 c-11 -11 -20 -28 -20 -39 0 -17 3 -18 38 -5 20 7 47 13 60
14 12 0 22 6 22 13 0 39 -67 50 -100 17z"/>
<path d="M677 1583 c-12 -12 -7 -22 8 -17 8 4 15 10 15 15 0 11 -14 12 -23 2z"/>
<path d="M1174 1535 c-14 -21 -15 -31 -6 -50 13 -29 26 -31 66 -10 15 8 32 12
37 9 5 -3 9 8 9 25 0 54 -76 72 -106 26z"/>
<path d="M786 1508 c-9 -12 -16 -25 -16 -29 0 -6 91 0 98 6 2 2 -1 13 -8 24
-14 28 -55 27 -74 -1z"/>
<path d="M696 1485 c-21 -22 -21 -49 0 -41 9 3 22 6 30 6 18 0 18 24 0 39 -11
9 -18 8 -30 -4z"/>
<path d="M1022 1464 c-15 -10 -22 -25 -22 -49 0 -43 8 -47 56 -33 50 15 51 15
69 17 21 2 19 37 -5 61 -24 24 -67 26 -98 4z"/>
<path d="M624 1456 c-8 -22 3 -33 18 -18 9 9 9 15 0 24 -9 9 -13 7 -18 -6z"/>
<path d="M866 1371 c-19 -21 -19 -77 0 -74 10 2 78 10 97 12 12 1 8 56 -5 69
-19 19 -73 14 -92 -7z"/>
<path d="M735 1336 c-24 -36 -11 -53 37 -50 48 2 57 14 34 49 -21 31 -51 32
-71 1z"/>
<path d="M650 1335 c-18 -21 -8 -48 18 -50 27 -2 35 8 27 34 -8 25 -31 33 -45
16z"/>
<path d="M594 1326 c-4 -10 -2 -22 4 -28 8 -8 13 -7 18 6 4 10 2 22 -4 28 -8
8 -13 7 -18 -6z"/>
<path d="M607 1200 c3 -11 7 -20 9 -20 2 0 4 9 4 20 0 11 -4 20 -9 20 -5 0 -7
-9 -4 -20z"/>
<path d="M636 1201 c-10 -15 11 -59 34 -71 25 -14 27 7 5 50 -16 30 -29 37
-39 21z"/>
<path d="M707 1193 c-13 -13 -7 -60 11 -75 9 -8 29 -18 44 -22 21 -5 28 -2 33
13 15 47 -57 116 -88 84z"/>
</g>
</svg>
