<?xml version="1.0" standalone="no"?>
<!DOCTYPE svg PUBLIC "-//W3C//DTD SVG 20010904//EN"
 "http://www.w3.org/TR/2001/REC-SVG-20010904/DTD/svg10.dtd">
<svg version="1.0" xmlns="http://www.w3.org/2000/svg"
 width="225.000000pt" height="225.000000pt" viewBox="0 0 225.000000 225.000000"
 preserveAspectRatio="xMidYMid meet">
<metadata>
Created by potrace 1.14, written by Peter Selinger 2001-2017
</metadata>
<g transform="translate(0.000000,225.000000) scale(0.100000,-0.100000)"
fill="#000000" stroke="none">
<path d="M1038 2165 c-2 -2 -26 -6 -53 -9 -87 -9 -117 -15 -131 -27 -8 -7 -17
-9 -21 -6 -3 4 -12 2 -20 -4 -7 -6 -13 -8 -13 -4 0 4 -6 3 -12 -3 -7 -5 -28
-13 -46 -17 -18 -4 -36 -13 -39 -21 -3 -8 -8 -12 -12 -9 -4 2 -19 -2 -34 -10
-14 -7 -28 -11 -31 -7 -3 3 -6 0 -6 -6 0 -7 -7 -12 -15 -12 -8 0 -15 -4 -15
-8 0 -5 -20 -19 -45 -31 -25 -12 -45 -27 -45 -33 0 -6 -3 -9 -6 -5 -6 6 -33
-16 -127 -105 -33 -32 -56 -58 -51 -58 5 -1 -2 -7 -16 -15 -14 -8 -21 -14 -17
-15 5 0 -4 -17 -20 -37 -50 -65 -81 -117 -98 -160 -10 -24 -21 -43 -25 -43 -6
0 -22 -58 -22 -80 0 -3 -4 -10 -10 -17 -5 -7 -7 -17 -3 -23 3 -5 2 -10 -3 -10
-5 0 -9 -6 -9 -12 -1 -7 -4 -38 -8 -68 -11 -88 -13 -170 -4 -170 4 0 4 -13 -1
-29 -4 -16 -5 -32 -2 -35 9 -10 9 -46 0 -46 -5 0 -5 -8 1 -18 7 -14 14 -53 26
-142 0 -3 5 -18 12 -35 6 -16 15 -39 19 -50 4 -11 6 -26 5 -33 -1 -6 3 -12 9
-12 6 0 9 -4 5 -9 -3 -5 2 -17 11 -25 9 -9 17 -22 18 -29 3 -16 29 -71 36 -77
3 -3 18 -26 33 -53 15 -26 33 -47 39 -47 6 0 9 -3 5 -6 -3 -3 9 -22 26 -41 72
-80 124 -133 131 -133 4 0 18 -10 31 -23 42 -38 53 -46 59 -40 3 4 6 2 6 -3 0
-6 16 -16 35 -24 19 -7 37 -20 40 -27 2 -8 9 -11 15 -8 5 3 10 1 10 -5 0 -6 5
-8 10 -5 6 3 10 1 10 -5 0 -6 4 -9 9 -5 5 3 12 1 16 -5 4 -6 10 -8 14 -5 5 2
22 -2 38 -10 16 -8 40 -17 54 -19 13 -2 25 -5 27 -7 1 -1 7 -3 12 -4 6 -1 11
-3 13 -5 1 -1 13 -3 27 -5 14 -2 41 -6 60 -10 54 -10 246 -12 319 -3 36 5 74
10 84 10 9 1 17 5 17 8 0 3 8 6 18 6 34 2 74 13 89 26 9 7 19 12 22 11 10 -4
55 9 69 20 6 5 12 6 12 1 0 -5 4 -4 8 1 4 6 25 19 47 30 22 11 42 23 45 26 3
3 15 11 26 17 55 29 270 240 266 262 -1 6 28 48 51 72 9 10 14 18 11 18 -6 0
25 58 45 83 8 9 10 17 6 17 -4 0 0 8 9 19 9 10 18 28 19 40 1 11 6 21 11 21 5
0 7 3 3 6 -3 4 0 19 9 35 8 16 14 30 13 31 0 2 2 19 5 38 18 106 25 190 15
196 -4 2 -4 19 0 36 11 54 -11 216 -39 283 -17 43 -32 84 -31 89 0 3 -8 22
-19 41 -11 20 -20 41 -20 48 0 7 -8 22 -17 33 -10 11 -19 26 -21 34 -2 8 -8
17 -13 18 -5 2 -9 10 -9 18 0 8 -4 14 -10 14 -5 0 -10 5 -10 11 0 10 -17 31
-82 99 -14 16 -23 31 -20 34 3 3 1 6 -4 6 -6 0 -37 25 -69 56 -33 31 -72 63
-87 72 -16 9 -28 20 -28 24 0 4 -7 8 -15 8 -8 0 -15 5 -15 11 0 5 -4 7 -10 4
-5 -3 -10 -3 -10 2 0 9 -120 59 -132 55 -5 -1 -8 3 -8 9 0 5 -4 7 -10 4 -5 -3
-18 -1 -29 5 -11 5 -31 11 -45 12 -15 1 -26 6 -26 11 0 5 -7 7 -15 3 -8 -3
-15 -2 -15 3 0 5 -10 7 -22 7 -13 -1 -34 2 -47 6 -23 8 -237 19 -243 13z"/>
</g>
</svg>
